<?xml version="1.0" encoding="utf-8"?>
<svg viewBox="0 -1.548 49.674 56.934" xmlns="http://www.w3.org/2000/svg" xmlns:bx="https://boxy-svg.com">
  <path style="fill: rgb(240, 240, 240);" d="M 7.635 53.059 L 7.817 53.058 L 8 53.057 C 7.25 53.057 6.5 52.682 5.937 52.12 C 5.375 51.557 5 50.807 5 50.057 L 5 26.557 L 5 3.057 C 5 2.307 5.375 1.557 5.937 0.995 C 6.5 0.432 7.25 0.057 8 0.057 L 35.5 0.057 C 36.5 0.057 37 0.057 38.5 1.557 L 46.5 8.557 C 48 10.057 48 10.057 48 11.557 L 48 30.057 L 48 50.057 C 48 50.807 47.625 51.557 47.063 52.12 C 46.5 52.682 45.75 53.057 45 53.057 L 26.318 53.058 L 7.635 53.059" bx:origin="-0.116279 0"/>
  <path style="fill: rgb(216, 216, 216);" d="M 48 13.701 L 48 10.077 L 36.477 0 L 32.532 0.057 L 32.5 10.124 C 32.5 12.508 34.288 13.701 36.673 13.701 Z"/>
  <path style="stroke: rgb(80, 80, 80); fill: none;" d="M 7.635 53.002 L 7.817 53.001 L 8 53 C 7.25 53 6.5 52.625 5.937 52.063 C 5.375 51.5 5 50.75 5 50 L 5 26.5 L 5 3 C 5 2.25 5.375 1.5 5.937 0.938 C 6.5 0.375 7.25 0 8 0 L 35.5 0 C 36.5 0 37 0 38.5 1.5 L 46.5 8.5 C 48 10 48 10 48 11.5 L 48 30 L 48 50 C 48 50.75 47.625 51.5 47.063 52.063 C 46.5 52.625 45.75 53 45 53 L 26.318 53.001 L 7.635 53.002" bx:origin="-0.116279 0"/>
  <path style="stroke: rgb(41, 146, 0); fill: rgb(44, 193, 39);" d="M 4 45 L 31.101 44.998 C 31.756 45.003 32.5 44.5 32.5 43.5 L 32.5 31.5 C 32.5 30.5 32 30 31 30 L 4 30 C 3 30 2.5 30.5 2.5 31.5 L 2.5 43.5 C 2.5 44.5 3 45 4 45 Z"/>
  <path style="fill: none; stroke: rgb(80, 80, 80);" d="M 32.532 0.114 L 32.5 10.181 C 32.5 12.565 34.288 13.758 36.673 13.758 L 48 13.758"/>
  <text style="fill: rgb(255, 255, 255); font-family: Arial, sans-serif; font-size: 12px; font-weight: 700; paint-order: stroke; text-anchor: middle; white-space: pre;" transform="matrix(0.829553, 0, 0, 0.831078, 3.598509, 10.067332)" x="16.809" y="37.271" bx:origin="-0.735294 -23.05">AFP</text>
</svg>