<?xml version="1.0" encoding="utf-8"?>
<svg viewBox="0 -1.548 44.341 55.66" xmlns="http://www.w3.org/2000/svg" xmlns:bx="https://boxy-svg.com">
  <path style="fill: rgb(240, 240, 240);" d="M 7.232 52.855 L 7.393 52.854 L 7.554 52.853 C 6.893 52.853 6.232 52.478 5.736 51.916 C 5.24 51.353 4.91 50.603 4.91 49.853 L 4.91 26.353 L 4.91 2.853 C 4.91 2.103 5.24 1.353 5.736 0.791 C 6.232 0.228 6.893 -0.147 7.554 -0.147 L 31.79 -0.147 C 32.671 -0.147 33.112 -0.147 34.434 1.353 L 41.484 8.353 C 42.806 9.853 42.806 9.853 42.806 11.353 L 42.806 29.853 L 42.806 49.853 C 42.806 50.603 42.476 51.353 41.98 51.916 C 41.484 52.478 40.823 52.853 40.162 52.853 L 23.698 52.854 L 7.232 52.855" bx:origin="-0.116279 0"/>
  <path style="fill: rgb(216, 216, 216);" d="M 42.236 10.107 L 41.392 8.697 L 33.956 0.393 L 32.402 0.393 L 32.402 7.906 C 32.402 10.107 32.402 10.107 34.504 10.107 L 42.236 10.107 Z"/>
  <path style="stroke: rgb(80, 80, 80); fill: none;" d="M 7.232 52.798 L 7.392 52.797 L 7.553 52.796 C 6.892 52.796 6.231 52.421 5.735 51.859 C 5.24 51.296 4.91 50.546 4.91 49.796 L 4.91 26.296 L 4.91 2.796 C 4.91 2.046 5.24 1.296 5.735 0.734 C 6.231 0.171 6.892 -0.204 7.553 -0.204 L 31.79 -0.204 C 32.671 -0.204 33.112 -0.204 34.434 1.296 L 41.484 8.296 C 42.806 9.796 42.806 9.796 42.806 11.296 L 42.806 29.796 L 42.806 49.796 C 42.806 50.546 42.476 51.296 41.98 51.859 C 41.484 52.421 40.823 52.796 40.162 52.796 L 23.697 52.797 L 7.232 52.798" bx:origin="-0.116279 0"/>
  <path style="stroke: rgb(0, 53, 146); fill: rgb(39, 121, 193);" d="M 2.716 44.796 L 29.817 44.794 C 30.472 44.799 31.216 44.296 31.216 43.296 L 31.216 31.296 C 31.216 30.296 30.716 29.796 29.716 29.796 L 2.716 29.796 C 1.716 29.796 1.216 30.296 1.216 31.296 L 1.216 43.296 C 1.216 44.296 1.716 44.796 2.716 44.796 Z"/>
  <path style="fill: none; stroke: rgb(80, 80, 80);" d="M 32.426 -0.09 L 32.405 7.434 C 32.39 10.1 32.39 10.1 35.206 10.107 L 42.806 10.107"/>
</svg>